<svg xmlns="http://www.w3.org/2000/svg" xmlns:xlink="http://www.w3.org/1999/xlink" width="128" zoomAndPan="magnify" viewBox="0 0 96 95.999999" height="128" preserveAspectRatio="xMidYMid meet" version="1.0"><defs><clipPath id="065a339929"><path d="M 3 16.351562 L 93 16.351562 L 93 79.351562 L 3 79.351562 Z M 3 16.351562 " clip-rule="nonzero"/></clipPath></defs><g clip-path="url(#065a339929)"><path fill="#004aad" d="M 63.023438 39.265625 C 63.023438 39.882812 62.519531 40.386719 61.902344 40.386719 L 46.847656 40.386719 C 46.230469 40.386719 45.726562 39.882812 45.726562 39.265625 C 45.726562 38.648438 46.230469 38.144531 46.847656 38.144531 L 61.902344 38.144531 C 62.519531 38.144531 63.023438 38.648438 63.023438 39.265625 Z M 70.761719 38.144531 L 66.644531 38.144531 C 66.027344 38.144531 65.527344 38.648438 65.527344 39.265625 C 65.527344 39.882812 66.027344 40.386719 66.644531 40.386719 L 70.761719 40.386719 C 71.378906 40.386719 71.882812 39.882812 71.882812 39.265625 C 71.882812 38.648438 71.378906 38.144531 70.761719 38.144531 Z M 45.726562 32 L 45.726562 24.734375 C 45.726562 24.113281 46.226562 23.613281 46.847656 23.613281 L 70.757812 23.613281 C 71.378906 23.613281 71.878906 24.113281 71.878906 24.734375 L 71.878906 32 C 71.878906 32.617188 71.378906 33.121094 70.757812 33.121094 L 46.847656 33.121094 C 46.226562 33.121094 45.726562 32.617188 45.726562 32 Z M 47.964844 30.878906 L 69.640625 30.878906 L 69.640625 25.851562 L 47.964844 25.851562 Z M 50.960938 45.414062 L 46.847656 45.414062 C 46.226562 45.414062 45.726562 45.914062 45.726562 46.53125 C 45.726562 47.152344 46.226562 47.652344 46.847656 47.652344 L 50.960938 47.652344 C 51.578125 47.652344 52.082031 47.152344 52.082031 46.53125 C 52.082031 45.914062 51.578125 45.414062 50.960938 45.414062 Z M 13.96875 40.386719 L 18.082031 40.386719 C 18.699219 40.386719 19.203125 39.882812 19.203125 39.265625 C 19.203125 38.648438 18.699219 38.144531 18.082031 38.144531 L 13.96875 38.144531 C 13.347656 38.144531 12.847656 38.648438 12.847656 39.265625 C 12.847656 39.882812 13.347656 40.386719 13.96875 40.386719 Z M 37.878906 38.144531 L 22.828125 38.144531 C 22.207031 38.144531 21.707031 38.648438 21.707031 39.265625 C 21.707031 39.882812 22.207031 40.386719 22.828125 40.386719 L 37.878906 40.386719 C 38.5 40.386719 39 39.882812 39 39.265625 C 39 38.648438 38.5 38.144531 37.878906 38.144531 Z M 39 24.734375 L 39 32 C 39 32.617188 38.5 33.121094 37.878906 33.121094 L 13.96875 33.121094 C 13.347656 33.121094 12.847656 32.617188 12.847656 32 L 12.847656 24.734375 C 12.847656 24.113281 13.347656 23.613281 13.96875 23.613281 L 37.878906 23.613281 C 38.5 23.613281 39 24.113281 39 24.734375 Z M 36.761719 25.851562 L 15.085938 25.851562 L 15.085938 30.878906 L 36.761719 30.878906 Z M 13.96875 47.652344 L 29.019531 47.652344 C 29.640625 47.652344 30.140625 47.152344 30.140625 46.53125 C 30.140625 45.914062 29.640625 45.414062 29.019531 45.414062 L 13.96875 45.414062 C 13.347656 45.414062 12.847656 45.914062 12.847656 46.53125 C 12.847656 47.152344 13.347656 47.652344 13.96875 47.652344 Z M 37.878906 45.414062 L 33.765625 45.414062 C 33.148438 45.414062 32.644531 45.914062 32.644531 46.53125 C 32.644531 47.152344 33.148438 47.652344 33.765625 47.652344 L 37.878906 47.652344 C 38.5 47.652344 39 47.152344 39 46.53125 C 39 45.914062 38.5 45.414062 37.878906 45.414062 Z M 37.878906 52.679688 L 22.828125 52.679688 C 22.207031 52.679688 21.707031 53.179688 21.707031 53.800781 C 21.707031 54.417969 22.207031 54.917969 22.828125 54.917969 L 37.878906 54.917969 C 38.5 54.917969 39 54.417969 39 53.800781 C 39 53.179688 38.5 52.679688 37.878906 52.679688 Z M 18.082031 52.679688 L 13.96875 52.679688 C 13.347656 52.679688 12.847656 53.179688 12.847656 53.800781 C 12.847656 54.417969 13.347656 54.917969 13.96875 54.917969 L 18.082031 54.917969 C 18.699219 54.917969 19.203125 54.417969 19.203125 53.800781 C 19.203125 53.179688 18.699219 52.679688 18.082031 52.679688 Z M 91.707031 78.359375 C 90.847656 79.21875 89.71875 79.648438 88.585938 79.648438 C 87.457031 79.648438 86.328125 79.21875 85.46875 78.359375 L 79.265625 72.15625 C 78.683594 71.574219 78.460938 70.765625 78.597656 70.011719 L 77.070312 68.484375 C 74.910156 69.769531 72.472656 70.414062 70.035156 70.414062 C 67.0625 70.414062 64.097656 69.457031 61.632812 67.546875 L 4.125 67.546875 C 3.507812 67.546875 3.003906 67.042969 3.003906 66.425781 L 3.003906 22.828125 C 3.003906 22.207031 3.507812 21.707031 4.125 21.707031 L 8.363281 21.707031 L 8.363281 17.464844 C 8.363281 16.847656 8.867188 16.347656 9.484375 16.347656 L 37.183594 16.347656 C 39.328125 16.347656 41.222656 17.421875 42.363281 19.066406 C 43.503906 17.421875 45.398438 16.347656 47.542969 16.347656 L 75.242188 16.347656 C 75.859375 16.347656 76.363281 16.847656 76.363281 17.464844 L 76.363281 21.707031 L 80.601562 21.707031 C 81.21875 21.707031 81.722656 22.207031 81.722656 22.828125 L 81.722656 49.476562 C 84.398438 53.820312 84.4375 59.34375 81.832031 63.71875 L 83.359375 65.246094 C 84.113281 65.113281 84.921875 65.332031 85.503906 65.914062 L 91.707031 72.117188 C 93.425781 73.839844 93.425781 76.640625 91.707031 78.359375 Z M 83.921875 67.496094 C 83.886719 67.464844 83.839844 67.449219 83.792969 67.449219 C 83.746094 67.449219 83.699219 67.464844 83.667969 67.496094 L 80.84375 70.320312 C 80.777344 70.386719 80.777344 70.503906 80.84375 70.570312 L 81.574219 71.300781 L 84.648438 68.226562 L 83.917969 67.496094 Z M 76.363281 23.945312 L 76.363281 44.488281 C 77.480469 45.070312 78.53125 45.8125 79.484375 46.71875 L 79.484375 23.945312 Z M 43.484375 22.644531 L 43.484375 59.945312 L 56.6875 59.945312 C 56.289062 58.300781 56.199219 56.59375 56.414062 54.917969 L 46.847656 54.917969 C 46.226562 54.917969 45.726562 54.417969 45.726562 53.800781 C 45.726562 53.179688 46.226562 52.679688 46.847656 52.679688 L 56.894531 52.679688 C 57.441406 50.871094 58.371094 49.152344 59.683594 47.652344 L 55.707031 47.652344 C 55.089844 47.652344 54.585938 47.152344 54.585938 46.53125 C 54.585938 45.914062 55.089844 45.414062 55.707031 45.414062 L 62.179688 45.414062 C 65.707031 42.953125 70.144531 42.335938 74.125 43.574219 L 74.125 18.585938 L 47.542969 18.585938 C 45.304688 18.585938 43.484375 20.40625 43.484375 22.644531 Z M 10.605469 59.945312 L 41.242188 59.945312 L 41.242188 22.644531 C 41.242188 20.40625 39.421875 18.585938 37.183594 18.585938 L 10.605469 18.585938 Z M 5.246094 65.304688 L 59.335938 65.304688 C 58.554688 64.335938 57.925781 63.289062 57.449219 62.1875 L 9.484375 62.1875 C 8.867188 62.1875 8.363281 61.683594 8.363281 61.066406 L 8.363281 23.945312 L 5.246094 23.945312 Z M 78.164062 64.8125 C 82.644531 60.332031 82.644531 53.035156 78.164062 48.554688 C 73.679688 44.070312 66.386719 44.070312 61.902344 48.554688 C 57.417969 53.035156 57.417969 60.332031 61.902344 64.8125 C 66.386719 69.296875 73.679688 69.296875 78.164062 64.8125 Z M 78.910156 67.160156 L 79.875 68.125 L 81.472656 66.523438 L 80.507812 65.5625 C 80.265625 65.847656 80.015625 66.128906 79.746094 66.394531 C 79.476562 66.664062 79.195312 66.917969 78.910156 67.160156 Z M 90.121094 73.703125 L 86.234375 69.8125 L 83.160156 72.886719 L 87.050781 76.773438 C 87.898438 77.621094 89.273438 77.621094 90.121094 76.773438 C 90.96875 75.925781 90.96875 74.550781 90.121094 73.703125 Z M 77.113281 63.765625 C 75.222656 65.65625 72.707031 66.695312 70.03125 66.695312 C 67.355469 66.695312 64.839844 65.65625 62.949219 63.765625 C 59.046875 59.859375 59.046875 53.507812 62.949219 49.601562 C 66.851562 45.695312 73.207031 45.695312 77.113281 49.601562 C 81.019531 53.503906 81.019531 59.859375 77.113281 63.765625 Z M 75.527344 51.183594 C 74.011719 49.667969 72.019531 48.910156 70.03125 48.910156 C 68.039062 48.910156 66.046875 49.667969 64.535156 51.183594 C 61.503906 54.21875 61.503906 59.148438 64.535156 62.179688 C 66.003906 63.648438 67.953125 64.457031 70.03125 64.457031 C 72.105469 64.457031 74.058594 63.648438 75.527344 62.179688 C 78.558594 59.148438 78.558594 54.21875 75.527344 51.183594 Z M 75.527344 51.183594 " fill-opacity="1" fill-rule="nonzero"/></g></svg>