<svg xmlns="http://www.w3.org/2000/svg" xmlns:xlink="http://www.w3.org/1999/xlink" width="128" zoomAndPan="magnify" viewBox="0 0 96 95.999999" height="128" preserveAspectRatio="xMidYMid meet" version="1.0"><defs><clipPath id="3bd1408902"><path d="M 3.050781 3.050781 L 93 3.050781 L 93 93 L 3.050781 93 Z M 3.050781 3.050781 " clip-rule="nonzero"/></clipPath></defs><g clip-path="url(#3bd1408902)"><path fill="#004aad" d="M 83.03125 12.953125 C 89.628906 19.546875 92.929688 28.195312 92.929688 36.84375 L 92.925781 36.84375 C 92.925781 45.492188 89.628906 54.140625 83.035156 60.734375 C 76.4375 67.332031 67.789062 70.628906 59.140625 70.628906 L 59.140625 70.625 C 51.730469 70.625 44.320312 68.203125 38.203125 63.363281 L 32.519531 69.042969 C 32.699219 69.71875 32.792969 70.410156 32.792969 71.105469 C 32.792969 73.132812 32.019531 75.164062 30.480469 76.703125 L 16.554688 90.628906 C 15.015625 92.167969 12.984375 92.941406 10.957031 92.941406 C 8.960938 92.941406 6.960938 92.191406 5.429688 90.695312 L 5.355469 90.628906 C 3.816406 89.085938 3.046875 87.058594 3.046875 85.03125 C 3.046875 83.035156 3.796875 81.035156 5.292969 79.5 L 5.355469 79.429688 L 19.28125 65.503906 C 20.824219 63.964844 22.851562 63.195312 24.882812 63.195312 C 25.574219 63.195312 26.269531 63.285156 26.941406 63.464844 L 32.621094 57.78125 C 27.777344 51.664062 25.355469 44.253906 25.355469 36.84375 C 25.355469 28.195312 28.65625 19.546875 35.25 12.953125 C 41.847656 6.355469 50.496094 3.058594 59.140625 3.058594 L 59.140625 3.0625 C 67.792969 3.0625 76.441406 6.359375 83.03125 12.953125 Z M 43.910156 50.964844 L 48.8125 50.964844 L 48.8125 32.699219 L 43.910156 32.699219 Z M 50.027344 53.390625 C 50.699219 53.390625 51.242188 52.847656 51.242188 52.179688 L 51.242188 31.484375 C 51.242188 30.8125 50.699219 30.269531 50.027344 30.269531 L 42.695312 30.269531 C 42.023438 30.269531 41.480469 30.8125 41.480469 31.484375 L 41.480469 52.179688 C 41.480469 52.847656 42.023438 53.390625 42.695312 53.390625 Z M 69.472656 50.964844 L 74.375 50.964844 L 74.375 22.722656 L 69.472656 22.722656 Z M 75.589844 53.390625 C 76.261719 53.390625 76.804688 52.847656 76.804688 52.179688 L 76.804688 21.507812 C 76.804688 20.839844 76.261719 20.292969 75.589844 20.292969 L 68.257812 20.292969 C 67.589844 20.292969 67.042969 20.839844 67.042969 21.507812 L 67.042969 52.179688 C 67.042969 52.847656 67.589844 53.390625 68.257812 53.390625 Z M 56.691406 50.964844 L 61.59375 50.964844 L 61.59375 38.75 L 56.691406 38.75 Z M 62.808594 53.390625 C 63.480469 53.390625 64.023438 52.847656 64.023438 52.179688 L 64.023438 37.535156 C 64.023438 36.863281 63.480469 36.320312 62.808594 36.320312 L 55.476562 36.320312 C 54.804688 36.320312 54.261719 36.863281 54.261719 37.535156 L 54.261719 52.179688 C 54.261719 52.847656 54.804688 53.390625 55.476562 53.390625 Z M 36.347656 61.78125 C 35.976562 61.441406 35.609375 61.09375 35.25 60.734375 C 34.890625 60.375 34.542969 60.007812 34.203125 59.636719 L 29.304688 64.535156 C 29.628906 64.757812 29.941406 65 30.238281 65.273438 L 30.257812 65.289062 L 30.261719 65.292969 L 30.273438 65.308594 L 30.292969 65.324219 L 30.324219 65.355469 L 30.335938 65.363281 L 30.34375 65.371094 L 30.359375 65.390625 L 30.378906 65.40625 L 30.40625 65.433594 L 30.414062 65.4375 L 30.429688 65.457031 L 30.445312 65.472656 L 30.464844 65.488281 L 30.480469 65.503906 C 30.710938 65.734375 30.925781 65.980469 31.125 66.238281 L 31.140625 66.257812 L 31.144531 66.265625 L 31.183594 66.3125 L 31.183594 66.316406 L 31.199219 66.332031 L 31.207031 66.34375 L 31.210938 66.351562 L 31.242188 66.390625 C 31.3125 66.488281 31.382812 66.585938 31.449219 66.683594 Z M 29.078125 67.5625 C 28.980469 67.449219 28.875 67.332031 28.761719 67.222656 C 28.671875 67.132812 28.582031 67.050781 28.492188 66.96875 L 28.476562 66.957031 L 28.464844 66.945312 L 28.453125 66.9375 L 28.4375 66.921875 L 28.40625 66.894531 L 28.402344 66.890625 C 27.9375 66.503906 27.421875 66.207031 26.882812 65.996094 L 26.871094 65.992188 L 26.863281 65.988281 L 26.855469 65.988281 L 26.832031 65.976562 L 26.824219 65.976562 L 26.820312 65.972656 C 26.199219 65.742188 25.539062 65.625 24.882812 65.625 C 23.472656 65.625 22.066406 66.15625 21 67.222656 L 7.019531 81.199219 C 5.988281 82.261719 5.476562 83.644531 5.476562 85.03125 C 5.476562 86.4375 6.007812 87.84375 7.074219 88.910156 L 7.128906 88.96875 C 8.183594 89.996094 9.570312 90.511719 10.957031 90.511719 C 12.363281 90.511719 13.773438 89.976562 14.839844 88.910156 L 28.761719 74.984375 C 29.828125 73.921875 30.363281 72.511719 30.363281 71.105469 C 30.363281 69.886719 29.964844 68.667969 29.167969 67.675781 L 29.15625 67.660156 L 29.136719 67.636719 L 29.136719 67.632812 L 29.125 67.617188 L 29.113281 67.605469 L 29.101562 67.589844 L 29.089844 67.578125 Z M 38.859375 60.761719 C 38.890625 60.785156 38.921875 60.808594 38.949219 60.835938 L 38.953125 60.839844 C 44.773438 65.75 51.960938 68.203125 59.140625 68.203125 L 59.140625 68.199219 C 67.167969 68.199219 75.195312 65.140625 81.316406 59.015625 C 87.441406 52.890625 90.503906 44.867188 90.503906 36.84375 L 90.5 36.84375 C 90.5 28.816406 87.4375 20.792969 81.316406 14.667969 C 75.191406 8.542969 67.164062 5.480469 59.140625 5.480469 L 59.140625 5.488281 C 51.117188 5.488281 43.089844 8.546875 36.96875 14.671875 C 30.847656 20.792969 27.785156 28.816406 27.785156 36.84375 C 27.785156 44.871094 30.847656 52.894531 36.96875 59.015625 C 37.539062 59.589844 38.128906 60.132812 38.730469 60.652344 L 38.738281 60.660156 L 38.746094 60.664062 L 38.761719 60.675781 L 38.855469 60.757812 Z M 77.777344 18.207031 C 72.632812 13.0625 65.886719 10.492188 59.140625 10.492188 L 59.140625 10.484375 C 52.402344 10.484375 45.65625 13.0625 40.507812 18.207031 C 35.363281 23.355469 32.789062 30.097656 32.789062 36.84375 C 32.789062 43.589844 35.363281 50.332031 40.507812 55.476562 C 45.652344 60.625 52.398438 63.195312 59.140625 63.195312 L 59.140625 63.199219 C 65.882812 63.199219 72.628906 60.628906 77.777344 55.480469 C 82.925781 50.328125 85.5 43.585938 85.5 36.84375 L 85.496094 36.84375 C 85.496094 30.097656 82.921875 23.351562 77.777344 18.207031 Z M 59.140625 8.066406 C 51.773438 8.066406 44.40625 10.875 38.789062 16.492188 C 33.171875 22.109375 30.359375 29.476562 30.359375 36.84375 C 30.359375 44.210938 33.171875 51.574219 38.789062 57.195312 C 44.410156 62.816406 51.777344 65.625 59.140625 65.625 L 59.140625 65.621094 C 66.511719 65.621094 73.878906 62.8125 79.496094 57.195312 C 85.113281 51.578125 87.921875 44.210938 87.921875 36.84375 L 87.925781 36.84375 C 87.925781 29.476562 85.113281 22.109375 79.496094 16.488281 C 73.875 10.871094 66.507812 8.0625 59.140625 8.0625 Z M 59.140625 8.066406 " fill-opacity="1" fill-rule="evenodd"/></g></svg>