<svg xmlns="http://www.w3.org/2000/svg" xmlns:xlink="http://www.w3.org/1999/xlink" width="128" zoomAndPan="magnify" viewBox="0 0 96 95.999999" height="128" preserveAspectRatio="xMidYMid meet" version="1.0"><defs><clipPath id="e6428c4474"><path d="M 3 3 L 93 3 L 93 93 L 3 93 Z M 3 3 " clip-rule="nonzero"/></clipPath></defs><g clip-path="url(#e6428c4474)"><path fill="#004aad" d="M 47.980469 3.003906 C 45.496094 3.050781 43.023438 3.898438 40.988281 5.535156 L 7.738281 32.109375 C 4.925781 34.355469 3 37.761719 3 41.59375 L 3 83.378906 C 3 88.667969 7.355469 93.023438 12.644531 93.023438 L 38.355469 93.023438 C 38.355469 84.449219 38.355469 75.878906 38.355469 67.308594 C 38.355469 65.472656 39.734375 64.09375 41.570312 64.09375 L 54.429688 64.09375 C 56.265625 64.09375 57.644531 65.472656 57.644531 67.308594 C 57.644531 75.878906 57.644531 84.449219 57.644531 93.023438 L 83.355469 93.023438 C 88.644531 93.023438 93 88.667969 93 83.378906 L 93 41.59375 C 93 37.824219 91.207031 34.265625 88.179688 32.019531 C 77.140625 23.101562 66.097656 14.164062 55.0625 5.257812 C 52.964844 3.703125 50.464844 2.957031 47.980469 3.003906 Z M 48.09375 9.417969 C 49.1875 9.398438 50.285156 9.734375 51.21875 10.425781 C 62.769531 19.742188 74.460938 29.199219 84.347656 37.1875 C 85.746094 38.222656 86.570312 39.851562 86.570312 41.59375 L 86.570312 83.378906 C 86.570312 85.214844 85.195312 86.59375 83.355469 86.59375 L 64.070312 86.59375 L 64.070312 67.308594 C 64.070312 62.023438 59.714844 57.664062 54.429688 57.664062 L 41.570312 57.664062 C 36.285156 57.664062 31.929688 62.023438 31.929688 67.308594 L 31.929688 86.59375 L 12.644531 86.59375 C 10.804688 86.59375 9.429688 85.214844 9.429688 83.378906 L 9.429688 41.59375 C 9.429688 39.914062 10.265625 38.320312 11.757812 37.128906 C 22.839844 28.265625 33.941406 19.414062 45.011719 10.542969 C 45.917969 9.816406 47.003906 9.441406 48.09375 9.417969 Z M 48.09375 9.417969 " fill-opacity="1" fill-rule="nonzero"/></g></svg>