<svg xmlns="http://www.w3.org/2000/svg" xmlns:xlink="http://www.w3.org/1999/xlink" width="128" zoomAndPan="magnify" viewBox="0 0 96 95.999999" height="128" preserveAspectRatio="xMidYMid meet" version="1.0"><defs><clipPath id="e5074d45b7"><path d="M 3 10 L 93 10 L 93 85.699219 L 3 85.699219 Z M 3 10 " clip-rule="nonzero"/></clipPath></defs><g clip-path="url(#e5074d45b7)"><path fill="#004aad" d="M 92.34375 29.519531 C 92.222656 27.402344 93 25.035156 91.59375 23.195312 C 89.128906 22.515625 86.671875 21.828125 84.199219 21.222656 C 84.070312 18.160156 84.3125 15.089844 84.085938 12.035156 C 83.730469 9.949219 81.191406 10.675781 79.722656 10.660156 C 66.96875 11.296875 55.21875 18.515625 47.722656 28.65625 C 39.65625 17.664062 26.433594 10.09375 12.589844 10.660156 C 12.316406 10.894531 11.757812 11.363281 11.476562 11.59375 C 11.054688 14.773438 11.453125 18.011719 11.28125 21.210938 C 8.480469 22.34375 4.332031 22.167969 3 25.398438 C 3.523438 26.675781 3.648438 28.058594 3.589844 29.429688 C 3.46875 45.640625 3.703125 61.84375 3.476562 78.046875 C 3.265625 79.265625 3.492188 81.425781 5.246094 81.046875 C 10.910156 78.984375 17.011719 78.242188 23.023438 78.589844 C 31.195312 79.226562 39.679688 81.144531 46.394531 86.039062 C 47.046875 86.039062 48.347656 86.039062 48.996094 86.046875 C 52.710938 83.195312 57.222656 81.644531 61.675781 80.359375 C 71.21875 77.683594 81.519531 77.933594 90.902344 81.140625 C 92.90625 80.804688 92.363281 78.605469 92.382812 77.148438 C 92.296875 61.277344 92.367188 45.398438 92.34375 29.519531 Z M 7 76.65625 C 7.050781 59.917969 6.992188 43.175781 7.023438 26.441406 C 8.453125 25.929688 9.894531 25.421875 11.332031 24.921875 C 11.300781 38.289062 11.308594 51.65625 11.324219 65.019531 C 11.136719 67.453125 14.175781 67.023438 15.761719 67.175781 C 25.214844 67.574219 33.820312 72.382812 40.691406 78.628906 C 30.085938 74.34375 18.015625 73.375 7 76.65625 Z M 53.160156 79.484375 C 58.402344 74.355469 64.449219 69.75 71.632812 67.765625 C 75.332031 66.515625 79.25 66.394531 83.097656 66.03125 C 84.34375 65.875 84.085938 64.324219 84.171875 63.453125 C 84.164062 50.667969 84.15625 37.882812 84.164062 25.097656 C 85.707031 25.566406 87.253906 26.035156 88.804688 26.488281 C 89.023438 43.226562 88.8125 59.96875 88.910156 76.703125 C 77.152344 73.449219 64.3125 74.613281 53.160156 79.484375 Z M 53.160156 79.484375 " fill-opacity="1" fill-rule="nonzero"/></g></svg>