<svg xmlns="http://www.w3.org/2000/svg" xmlns:xlink="http://www.w3.org/1999/xlink" width="128" zoomAndPan="magnify" viewBox="0 0 96 95.999999" height="128" preserveAspectRatio="xMidYMid meet" version="1.0"><path fill="#004aad" d="M 48 3 C 23.148438 3 3 23.148438 3 48 C 3 72.851562 23.148438 93 48 93 C 72.851562 93 93 72.851562 93 48 C 93 23.148438 72.851562 3 48 3 Z M 75.421875 50.613281 C 75.421875 51.59375 74.753906 52.453125 73.800781 52.691406 L 68.570312 53.996094 C 68.132812 55.507812 67.53125 56.949219 66.785156 58.304688 L 69.558594 62.925781 C 70.066406 63.769531 69.933594 64.847656 69.238281 65.542969 L 65.542969 69.238281 C 64.847656 69.933594 63.769531 70.066406 62.925781 69.558594 L 58.304688 66.785156 C 56.949219 67.53125 55.507812 68.132812 53.996094 68.570312 L 52.691406 73.800781 C 52.453125 74.753906 51.59375 75.421875 50.613281 75.421875 L 45.386719 75.421875 C 44.40625 75.421875 43.546875 74.753906 43.308594 73.800781 L 42.003906 68.570312 C 40.492188 68.132812 39.050781 67.53125 37.695312 66.785156 L 33.074219 69.558594 C 32.230469 70.066406 31.152344 69.933594 30.457031 69.238281 L 26.761719 65.542969 C 26.066406 64.847656 25.933594 63.769531 26.441406 62.925781 L 29.214844 58.304688 C 28.46875 56.949219 27.867188 55.507812 27.429688 53.996094 L 22.199219 52.691406 C 21.246094 52.453125 20.578125 51.59375 20.578125 50.613281 L 20.578125 45.386719 C 20.578125 44.40625 21.246094 43.546875 22.199219 43.308594 L 27.429688 42.003906 C 27.867188 40.492188 28.46875 39.050781 29.214844 37.695312 L 26.441406 33.074219 C 25.933594 32.230469 26.066406 31.152344 26.761719 30.457031 L 30.457031 26.761719 C 31.152344 26.066406 32.230469 25.933594 33.074219 26.441406 L 37.695312 29.214844 C 39.050781 28.46875 40.492188 27.867188 42.003906 27.429688 L 43.308594 22.199219 C 43.546875 21.246094 44.40625 20.578125 45.386719 20.578125 L 50.613281 20.578125 C 51.59375 20.578125 52.453125 21.246094 52.691406 22.199219 L 53.996094 27.429688 C 55.507812 27.867188 56.949219 28.46875 58.304688 29.214844 L 62.925781 26.441406 C 63.769531 25.933594 64.847656 26.066406 65.542969 26.761719 L 69.238281 30.457031 C 69.933594 31.152344 70.066406 32.230469 69.558594 33.074219 L 66.785156 37.695312 C 67.53125 39.050781 68.132812 40.492188 68.570312 42.003906 L 73.800781 43.308594 C 74.753906 43.546875 75.421875 44.40625 75.421875 45.386719 Z M 75.421875 50.613281 " fill-opacity="1" fill-rule="nonzero"/><path fill="#004aad" d="M 56.570312 48 C 56.570312 48.5625 56.515625 49.121094 56.40625 49.671875 C 56.292969 50.222656 56.132812 50.757812 55.917969 51.28125 C 55.703125 51.800781 55.4375 52.292969 55.125 52.761719 C 54.8125 53.230469 54.457031 53.660156 54.058594 54.058594 C 53.660156 54.457031 53.230469 54.8125 52.761719 55.125 C 52.292969 55.4375 51.800781 55.703125 51.28125 55.917969 C 50.757812 56.132812 50.222656 56.292969 49.671875 56.40625 C 49.121094 56.515625 48.5625 56.570312 48 56.570312 C 47.4375 56.570312 46.878906 56.515625 46.328125 56.40625 C 45.777344 56.292969 45.242188 56.132812 44.71875 55.917969 C 44.199219 55.703125 43.707031 55.4375 43.238281 55.125 C 42.769531 54.8125 42.339844 54.457031 41.941406 54.058594 C 41.542969 53.660156 41.1875 53.230469 40.875 52.761719 C 40.5625 52.292969 40.296875 51.800781 40.082031 51.28125 C 39.867188 50.757812 39.707031 50.222656 39.59375 49.671875 C 39.484375 49.121094 39.429688 48.5625 39.429688 48 C 39.429688 47.4375 39.484375 46.878906 39.59375 46.328125 C 39.707031 45.777344 39.867188 45.242188 40.082031 44.71875 C 40.296875 44.199219 40.5625 43.707031 40.875 43.238281 C 41.1875 42.769531 41.542969 42.339844 41.941406 41.941406 C 42.339844 41.542969 42.769531 41.1875 43.238281 40.875 C 43.707031 40.5625 44.199219 40.296875 44.71875 40.082031 C 45.242188 39.867188 45.777344 39.707031 46.328125 39.59375 C 46.878906 39.484375 47.4375 39.429688 48 39.429688 C 48.5625 39.429688 49.121094 39.484375 49.671875 39.59375 C 50.222656 39.707031 50.757812 39.867188 51.28125 40.082031 C 51.800781 40.296875 52.292969 40.5625 52.761719 40.875 C 53.230469 41.1875 53.660156 41.542969 54.058594 41.941406 C 54.457031 42.339844 54.8125 42.769531 55.125 43.238281 C 55.4375 43.707031 55.703125 44.199219 55.917969 44.71875 C 56.132812 45.242188 56.292969 45.777344 56.40625 46.328125 C 56.515625 46.878906 56.570312 47.4375 56.570312 48 Z M 56.570312 48 " fill-opacity="1" fill-rule="nonzero"/></svg>