<svg xmlns="http://www.w3.org/2000/svg" xmlns:xlink="http://www.w3.org/1999/xlink" width="128" zoomAndPan="magnify" viewBox="0 0 96 95.999999" height="128" preserveAspectRatio="xMidYMid meet" version="1.0"><defs><clipPath id="e9b2b965f9"><path d="M 3 3.1875 L 93 3.1875 L 93 93 L 3 93 Z M 3 3.1875 " clip-rule="nonzero"/></clipPath></defs><g clip-path="url(#e9b2b965f9)"><path fill="#004aad" d="M 92.582031 59.921875 C 92.203125 57.339844 90.402344 55.320312 87.882812 54.652344 C 85.519531 54.023438 83.015625 54.273438 80.828125 55.355469 L 75.09375 58.191406 L 75.09375 11.796875 C 75.09375 9.835938 73.5 8.242188 71.539062 8.242188 L 61.410156 8.242188 L 61.410156 7.648438 C 61.410156 6.269531 60.289062 5.148438 58.910156 5.148438 L 53.910156 5.148438 C 52.894531 3.921875 51.371094 3.1875 49.753906 3.1875 C 48.132812 3.1875 46.613281 3.921875 45.597656 5.148438 L 40.59375 5.148438 C 39.21875 5.148438 38.097656 6.269531 38.097656 7.648438 L 38.097656 8.242188 L 27.96875 8.242188 C 26.007812 8.242188 24.414062 9.835938 24.414062 11.796875 L 24.414062 54.75 C 21.660156 56.28125 18.921875 58.441406 16.207031 61.230469 L 16.128906 61.152344 C 14.722656 59.746094 12.433594 59.746094 11.027344 61.152344 L 4.082031 68.09375 C 3.40625 68.769531 3.03125 69.675781 3.03125 70.640625 C 3.03125 71.605469 3.40625 72.511719 4.082031 73.191406 L 22.652344 91.757812 C 23.355469 92.460938 24.277344 92.8125 25.203125 92.8125 C 26.125 92.8125 27.050781 92.460938 27.753906 91.757812 L 34.695312 84.816406 C 35.933594 83.578125 36.078125 81.65625 35.136719 80.253906 C 35.335938 80.210938 35.523438 80.1875 35.691406 80.1875 L 49.851562 80.1875 C 53.496094 80.1875 56.386719 79.804688 59.523438 78.910156 L 69.9375 75.945312 C 73.59375 74.902344 76.507812 73.5 79.761719 71.714844 L 89.527344 66.355469 C 91.773438 65.128906 92.972656 62.601562 92.582031 59.921875 Z M 41.050781 8.097656 L 46.359375 8.097656 C 46.886719 8.097656 47.371094 7.820312 47.636719 7.363281 C 48.074219 6.609375 48.886719 6.136719 49.753906 6.136719 C 50.621094 6.136719 51.433594 6.605469 51.867188 7.359375 C 52.128906 7.816406 52.617188 8.097656 53.144531 8.097656 L 58.460938 8.097656 L 58.460938 13.648438 L 41.050781 13.648438 Z M 27.363281 11.796875 C 27.363281 11.46875 27.640625 11.191406 27.96875 11.191406 L 38.097656 11.191406 L 38.097656 14.105469 C 38.097656 15.480469 39.21875 16.597656 40.59375 16.597656 L 58.910156 16.597656 C 60.289062 16.597656 61.410156 15.480469 61.410156 14.105469 L 61.410156 11.191406 L 71.539062 11.191406 C 71.867188 11.191406 72.144531 11.46875 72.144531 11.796875 L 72.144531 59.648438 L 68.417969 61.492188 C 67.40625 57.667969 63.925781 54.875 59.824219 54.875 L 44.851562 54.875 C 38.992188 51.601562 33.148438 51.101562 27.367188 53.359375 L 27.367188 11.796875 Z M 32.609375 82.730469 L 25.667969 89.671875 C 25.410156 89.925781 24.992188 89.925781 24.738281 89.671875 L 6.171875 71.105469 C 6.007812 70.941406 5.984375 70.742188 5.984375 70.640625 C 5.984375 70.539062 6.007812 70.34375 6.171875 70.179688 L 13.113281 63.238281 C 13.242188 63.109375 13.410156 63.046875 13.578125 63.046875 C 13.746094 63.046875 13.914062 63.109375 14.042969 63.238281 L 32.609375 81.804688 C 32.859375 82.054688 32.859375 82.476562 32.609375 82.730469 Z M 88.109375 63.765625 L 78.339844 69.128906 C 75.265625 70.816406 72.519531 72.140625 69.128906 73.105469 L 58.714844 76.070312 C 55.855469 76.886719 53.203125 77.238281 49.851562 77.238281 L 35.691406 77.238281 C 34.6875 77.238281 33.710938 77.542969 32.890625 77.914062 L 18.292969 63.316406 C 26.816406 54.535156 35.144531 52.675781 43.726562 57.628906 L 44.066406 57.824219 L 59.824219 57.824219 C 62.972656 57.824219 65.578125 60.289062 65.753906 63.425781 C 65.769531 63.722656 65.683594 63.953125 65.480469 64.167969 C 65.273438 64.386719 65.054688 64.484375 64.753906 64.484375 L 46.847656 64.484375 C 46.03125 64.484375 45.371094 65.144531 45.371094 65.957031 C 45.371094 66.773438 46.03125 67.433594 46.847656 67.433594 L 64.753906 67.433594 C 65.863281 67.433594 66.855469 67.007812 67.628906 66.195312 C 68.035156 65.761719 68.324219 65.273438 68.5 64.742188 L 82.136719 58 C 83.683594 57.238281 85.453125 57.058594 87.125 57.503906 C 88.503906 57.871094 89.453125 58.933594 89.660156 60.347656 C 89.875 61.816406 89.285156 63.125 88.109375 63.765625 Z M 37.6875 39.316406 L 61.816406 39.316406 C 62.632812 39.316406 63.292969 38.65625 63.292969 37.839844 L 63.292969 22.257812 C 63.292969 21.441406 62.632812 20.78125 61.816406 20.78125 L 56.964844 20.78125 C 56.152344 20.78125 55.492188 21.441406 55.492188 22.257812 L 55.492188 36.363281 L 53.65625 36.363281 L 53.65625 27.332031 C 53.65625 26.519531 52.996094 25.859375 52.183594 25.859375 L 47.328125 25.859375 C 46.511719 25.859375 45.851562 26.519531 45.851562 27.332031 L 45.851562 36.363281 L 44.019531 36.363281 L 44.019531 31.46875 C 44.019531 30.652344 43.359375 29.992188 42.542969 29.992188 L 37.6875 29.992188 C 36.871094 29.992188 36.210938 30.652344 36.210938 31.46875 L 36.210938 37.839844 C 36.210938 38.65625 36.871094 39.316406 37.6875 39.316406 Z M 58.441406 23.734375 L 60.339844 23.734375 L 60.339844 36.363281 L 58.441406 36.363281 Z M 48.800781 28.808594 L 50.707031 28.808594 L 50.707031 36.363281 L 48.800781 36.363281 Z M 39.164062 32.945312 L 41.070312 32.945312 L 41.070312 36.363281 L 39.164062 36.363281 Z M 36.210938 45.097656 C 36.210938 44.28125 36.871094 43.621094 37.6875 43.621094 L 61.816406 43.621094 C 62.632812 43.621094 63.292969 44.28125 63.292969 45.097656 C 63.292969 45.910156 62.632812 46.570312 61.816406 46.570312 L 37.6875 46.570312 C 36.871094 46.570312 36.210938 45.910156 36.210938 45.097656 Z M 63.292969 50.839844 C 63.292969 51.65625 62.632812 52.316406 61.816406 52.316406 L 43.109375 52.316406 C 42.292969 52.316406 41.632812 51.65625 41.632812 50.839844 C 41.632812 50.027344 42.292969 49.363281 43.109375 49.363281 L 61.816406 49.363281 C 62.632812 49.363281 63.292969 50.027344 63.292969 50.839844 Z M 27.1875 82.132812 C 27.1875 83.304688 26.234375 84.253906 25.0625 84.253906 C 23.890625 84.253906 22.941406 83.304688 22.941406 82.132812 C 22.941406 80.957031 23.890625 80.007812 25.0625 80.007812 C 26.234375 80.007812 27.1875 80.957031 27.1875 82.132812 Z M 27.1875 82.132812 " fill-opacity="1" fill-rule="nonzero"/></g></svg>